<svg xmlns="http://www.w3.org/2000/svg" xml:space="preserve" style="enable-background:new 0 0 52.93 52.93" viewBox="0 0 52.93 52.93">
  <circle cx="26.465" cy="25.59" r="4.462" style="fill:#212020"/>
  <path d="M52.791 32.256c-.187-1.034-1.345-2.119-2.327-2.492l-2.645-1.004c-.982-.373-1.699-1.237-1.651-1.935.029-.417.046-.838.046-1.263 0-.284-.008-.566-.021-.846-.023-.467.719-1.193 1.677-1.624l2.39-1.074c.958-.432 2.121-1.565 2.194-2.613.064-.929-.047-2.196-.648-3.765-.699-1.831-1.834-3.005-2.779-3.718-.839-.633-2.423-.595-3.381-.163l-2.08.936c-.958.431-2.274.119-3.025-.616-.177-.174-.356-.343-.54-.509-.778-.705-1.17-2-.796-2.983l.819-2.162c.373-.982.368-2.594-.322-3.385-.635-.728-1.643-1.579-3.215-2.281-1.764-.788-3.346-.811-4.483-.639-1.039.158-2.121 1.331-2.494 2.312l-.946 2.491c-.373.982-.798 1.775-.949 1.771-.092-.004-.183-.005-.274-.005-.622 0-1.238.03-1.846.09-1.016.1-2.176-.507-2.607-1.465l-1.124-2.5c-.431-.959-1.538-2.21-2.589-2.227-.916-.016-2.207.209-3.936 1.028-1.874.889-2.971 1.742-3.611 2.437-.712.771-.554 2.416-.122 3.374l1.481 3.296c.431.958.256 2.266-.324 2.979-.579.714-1.786 1.033-2.768.661l-3.598-1.365c-.982-.373-2.65-.476-3.406.256-.658.637-1.412 1.709-2.056 3.51-.696 1.954-.867 3.332-.83 4.276.042 1.05 1.317 2.101 2.3 2.474l4.392 1.667c.982.373 1.782 1.244 1.839 1.941.055.699-.635 1.61-1.593 2.042l-4.382 1.97c-.958.431-2.211 1.539-2.227 2.589-.015.916.21 2.208 1.028 3.935.89 1.874 1.742 2.971 2.437 3.611.773.713 2.417.554 3.375.123l4.698-2.112c.958-.432 2.076-.412 2.525.013s.535 1.541.162 2.524L12.743 46.6c-.373.982-.476 2.65.256 3.404.638.659 1.709 1.414 3.51 2.057 1.954.697 3.333.868 4.277.831 1.05-.042 2.1-1.318 2.473-2.3l1.693-4.46c.373-.982 1.058-1.742 1.531-1.719.284.014.57.021.857.021.134 0 .266-.001.398-.005.219-.007.747.762 1.178 1.721l1.963 4.364c.431.958 1.605 1.986 2.653 2.038 1.121.056 2.669-.062 4.43-.734 1.685-.645 2.659-1.604 3.219-2.442.584-.873.388-2.517-.044-3.475l-1.606-3.573c-.431-.958-.169-2.191.527-2.824.693-.633 2-.9 2.981-.526l3.432 1.303c.982.373 2.64.489 3.478-.145.738-.56 1.591-1.49 2.281-3.034.827-1.854.785-3.605.561-4.846zM26.465 39.79c-7.844 0-14.201-6.357-14.201-14.2s6.357-14.2 14.201-14.2c7.842 0 14.2 6.357 14.2 14.2.001 7.843-6.358 14.2-14.2 14.2z" style="fill:#212020"/>
</svg>
