<?xml version="1.0" standalone="no"?>
<!DOCTYPE svg PUBLIC "-//W3C//DTD SVG 20010904//EN"
 "http://www.w3.org/TR/2001/REC-SVG-20010904/DTD/svg10.dtd">
<svg version="1.0" xmlns="http://www.w3.org/2000/svg"
 width="980.000000pt" height="798.000000pt" viewBox="0 0 980.000000 798.000000"
 preserveAspectRatio="xMidYMid meet">

<g transform="translate(0.000000,798.000000) scale(0.100000,-0.100000)"
fill="#212020" stroke="none">
<path d="M4525 7964 c-605 -58 -1120 -214 -1615 -490 -375 -208 -828 -570
-901 -719 -70 -145 18 -344 174 -390 133 -40 204 -9 432 190 354 308 738 527
1170 669 731 239 1539 216 2245 -63 399 -157 658 -317 1025 -630 155 -133 241
-181 322 -181 172 0 316 188 274 357 -18 70 -59 121 -204 254 -454 418 -1045
737 -1642 888 -153 38 -353 75 -525 96 -127 16 -651 29 -755 19z"/>
<path d="M4485 6559 c-456 -48 -1001 -313 -1358 -662 -86 -84 -92 -100 -92
-237 0 -95 11 -122 70 -183 60 -62 108 -81 200 -82 101 0 134 15 275 130 287
234 575 379 863 434 178 34 360 46 521 32 422 -35 742 -171 1096 -465 140
-117 176 -136 256 -136 117 0 210 55 262 154 22 43 27 64 27 131 0 67 -5 88
-27 130 -28 53 -171 198 -273 276 -327 251 -786 439 -1166 479 -111 11 -539
11 -654 -1z"/>
<path d="M4630 5156 c-162 -34 -348 -133 -461 -246 -91 -89 -106 -144 -73
-261 28 -100 108 -172 208 -185 72 -10 137 12 225 76 123 88 166 104 286 104
118 0 175 -19 270 -89 108 -80 132 -90 215 -89 143 0 236 87 247 229 9 104 -7
139 -106 236 -73 72 -103 93 -191 137 -146 72 -241 94 -415 98 -91 2 -163 -1
-205 -10z"/>
<path d="M3100 3729 c-631 -24 -1329 -86 -1652 -147 -75 -15 -101 -39 -553
-526 -410 -440 -452 -488 -490 -551 -49 -82 -92 -197 -128 -340 -36 -147 -48
-171 -130 -263 -80 -91 -134 -182 -143 -238 -7 -46 35 -403 62 -534 27 -130
49 -157 170 -218 l62 -31 27 39 c15 22 33 68 41 103 28 134 103 282 226 444
139 184 355 326 595 390 90 25 114 27 288 27 210 0 262 -10 430 -77 336 -135
616 -472 674 -812 6 -33 15 -150 21 -259 5 -116 14 -204 20 -210 8 -8 628 -12
2131 -14 l2120 -2 -6 112 c-18 282 58 571 205 788 103 151 263 288 435 370
183 87 282 109 490 110 334 0 564 -96 800 -334 215 -217 345 -515 345 -790 0
-29 6 -60 13 -71 13 -17 20 -17 108 -6 110 14 361 63 436 86 29 8 58 22 66 30
18 18 25 120 33 520 l7 310 -61 121 c-66 132 -175 300 -247 381 -54 62 -110
90 -355 183 -513 195 -873 294 -1351 375 -248 41 -242 39 -744 277 -816 387
-1310 591 -1556 643 -422 89 -1586 145 -2389 114z"/>
<path d="M1365 1509 c-145 -22 -309 -104 -424 -213 -93 -88 -185 -262 -210
-400 -16 -86 -14 -219 5 -295 9 -36 38 -113 66 -170 44 -92 61 -115 141 -195
103 -102 183 -153 302 -193 71 -24 95 -27 220 -27 118 -1 151 3 211 22 224 70
370 195 477 411 l52 104 0 207 0 207 -52 104 c-87 174 -194 286 -346 362 -130
65 -310 96 -442 76z"/>
<path d="M7860 1504 c-56 -11 -159 -49 -225 -82 -50 -26 -96 -62 -160 -127
-145 -145 -197 -251 -215 -436 -10 -103 0 -259 21 -334 18 -67 76 -167 134
-233 109 -125 208 -194 352 -246 84 -29 95 -31 233 -31 132 1 152 3 225 28
163 57 316 177 415 324 75 113 92 177 97 368 8 272 -29 368 -212 550 -168 168
-274 214 -510 220 -71 2 -141 1 -155 -1z"/>
</g>
</svg>
