<svg xmlns="http://www.w3.org/2000/svg" data-name="Layer 1" viewBox="0 0 100 125">
  <path d="M50 2.5A47.5 47.5 0 1 0 97.5 50 47.56 47.56 0 0 0 50 2.5ZM50 90a40 40 0 1 1 40-40 40 40 0 0 1-40 40Z"/>
  <path d="M50 26.18a23.71 23.71 0 0 0-9.42 1.95L42 24.08a3.75 3.75 0 0 0-7.08-2.47l-4.3 12.32a3.75 3.75 0 0 0 2.3 4.78l1.3.45a4.3 4.3 0 0 0 .57.2L45.23 43a3.84 3.84 0 0 0 1.24.21 3.75 3.75 0 0 0 1.23-7.29l-3.43-1.2A16.31 16.31 0 1 1 33.68 50a3.75 3.75 0 0 0-7.5 0A23.82 23.82 0 1 0 50 26.18Z"/>
  <text y="115" fill="#000000" font-family="'Helvetica Neue', Helvetica, Arial-Unicode, Arial, Sans-serif" font-size="5" font-weight="bold">Created by andika</text>
  <text y="120" fill="#000000" font-family="'Helvetica Neue', Helvetica, Arial-Unicode, Arial, Sans-serif" font-size="5" font-weight="bold">from the Noun Project</text>
</svg>
