<svg id="logosandtypes_com" data-name="logosandtypes com" xmlns="http://www.w3.org/2000/svg" xmlns:xlink="http://www.w3.org/1999/xlink" viewBox="0 0 150 150"><defs><style>.cls-1{fill:none;}.cls-2{fill:url(#linear-gradient);}</style><linearGradient id="linear-gradient" x1="13.41" y1="75" x2="135.85" y2="75" gradientUnits="userSpaceOnUse"><stop offset="0.17" stop-color="#1a6b6c"/><stop offset="0.86" stop-color="#1cc289"/></linearGradient></defs><g id="Layer_2" data-name="Layer 2"><path id="Layer_3" data-name="Layer 3" class="cls-1" d="M0,.2H150v150H0Z" transform="translate(0 -0.2)"/></g><path class="cls-2" d="M74.63,103.18c-9.47,8.93-18.42,18.56-27.87,27.56C33.91,143.57,11,131.93,13.62,113.93a19.67,19.67,0,0,1,5.8-11.73Q28.6,93,37.85,83.77c7.09-7.52,19.67-8.11,27.25-1C68.34,85.7,71.28,89,74.47,92l17-17-17-16.94c-3,2.88-6,6.06-9,9-7.71,7.54-20.94,6.63-28-1.35-6-6.07-12.14-12.1-18.16-18.19a19.34,19.34,0,0,1-5.65-12.71c-1.45-17.83,21.52-28,33.68-15.12,9.21,9,18.1,18.35,27.37,27.21C84.14,38.06,93,28.39,102.38,19.4A18.79,18.79,0,0,1,119,14.12c14.54,1.64,22,20.21,12.68,31.49C122.49,55.74,112.33,65,102.81,74.87c8.78,9.58,18.6,18.52,27.65,28a18.46,18.46,0,0,1,5.34,12.64A19.72,19.72,0,0,1,119,135.91c-7.72,1.34-14.55-2.47-19.49-8.2C91.06,119.68,83.07,111.12,74.63,103.18Zm5.48-5.58c6.16,6.27,12.42,12.4,18.61,18.63,2.77,2.77,5.55,5.51,8.29,8.3a12,12,0,0,0,10.71,3.84c9.66-.87,14.09-13.91,6.93-20.51-9.23-9-18.09-18.68-27.56-27.27Zm.25-45.23,17,17c9.14-9,18.16-18.12,27.24-27.16a11.7,11.7,0,0,0,3.16-11.62c-2.08-8.78-13.2-12.06-19.82-5.93-1.85,1.71-3.59,3.52-5.37,5.29C95.23,37.46,87.39,44.63,80.36,52.37ZM69.14,97.74l.11-.44c-3.24-2.41-5.81-5.69-8.79-8.42a11.93,11.93,0,0,0-16.71-.13C37.31,95.1,31,101.53,24.56,107.93a11.46,11.46,0,0,0-2.93,5,12,12,0,0,0,8.17,15c4.8,1.35,8.94.07,12.45-3.44C51.21,115.6,60.09,106.58,69.14,97.74Zm0-45.08c-7.19-8-15.26-15.31-22.77-23.07a65.55,65.55,0,0,0-5.78-5.65c-10.42-8-24.75,4.62-17.47,16.23,6.31,7.25,13.6,13.65,20.24,20.61a13.27,13.27,0,0,0,3.88,2.76,12.12,12.12,0,0,0,13.33-2.46C63.39,58.22,66.31,55.4,69.18,52.66Z" transform="translate(0 -0.2)"/></svg>
