<svg xmlns="http://www.w3.org/2000/svg" xmlns:xlink="http://www.w3.org/1999/xlink" version="1.1" x="0px" y="0px" viewBox="0 0 100 125" style="enable-background:new 0 0 100 100;" xml:space="preserve"><path d="M74.4,89H7.9c-2,0-3.6-1.6-3.6-3.6v-58h91.7v41.3l3.4,0.5V13.3c0-3.8-3.1-7-7-7H7.9c-3.8,0-7,3.1-7,7v72.1  c0,3.8,3.1,7,7,7h66.9L74.4,89z M4.3,13.3c0-2,1.6-3.6,3.6-3.6h84.5c2,0,3.6,1.6,3.6,3.6V24H4.3V13.3z"/><path d="M82.8,93.5C82.8,93.5,82.7,93.5,82.8,93.5c-0.8,0-1.4-0.5-1.6-1.2l-5.7-21c-0.2-0.6,0-1.2,0.4-1.7  c0.4-0.4,1.1-0.6,1.7-0.4l20.7,6c0.7,0.2,1.2,0.8,1.2,1.6c0,0.7-0.4,1.4-1.1,1.6l-10.2,3.7l-3.8,10.3C84.1,93,83.5,93.5,82.8,93.5z   M79.5,73.3l3.6,13l2.2-6.1c0.2-0.5,0.5-0.8,1-1l6-2.2L79.5,73.3z"/><circle cx="13.4" cy="16.8" r="3.2"/><circle cx="23.5" cy="16.8" r="3.2"/><circle cx="33.3" cy="16.8" r="3.2"/><path d="M86.6,39.9H67.4c-0.9,0-1.7,0.8-1.7,1.7s0.8,1.7,1.7,1.7h19.2c0.9,0,1.7-0.8,1.7-1.7S87.6,39.9,86.6,39.9z"/><path d="M86.6,48.5H67.4c-0.9,0-1.7,0.8-1.7,1.7s0.8,1.7,1.7,1.7h19.2c0.9,0,1.7-0.8,1.7-1.7S87.6,48.5,86.6,48.5z"/><path d="M86.6,57.2H67.4c-0.9,0-1.7,0.8-1.7,1.7c0,0.9,0.8,1.7,1.7,1.7h19.2c0.9,0,1.7-0.8,1.7-1.7  C88.3,57.9,87.6,57.2,86.6,57.2z"/><path d="M24.2,72c-1.8,0-3.3,1.5-3.3,3.3s1.5,3.3,3.3,3.3s3.3-1.5,3.3-3.3S26,72,24.2,72z"/><path d="M43.8,72c-1.8,0-3.3,1.5-3.3,3.3s1.5,3.3,3.3,3.3c1.8,0,3.3-1.5,3.3-3.3S45.6,72,43.8,72z"/><path d="M52.3,49.6l-29.7-3.5l0-1.5c0-3.6-2.9-6.4-6.4-6.4h-3.8c-0.9,0-1.7,0.8-1.7,1.7s0.8,1.7,1.7,1.7h3.8  c1.7,0,3.1,1.4,3.1,3.1l0.3,22.3c0,0.9,0.8,1.7,1.7,1.7h26.4c0.8,0,1.4-0.5,1.6-1.2l4.6-15.6c0.1-0.5,0.1-1-0.2-1.4  C53.3,49.9,52.8,49.7,52.3,49.6z M46.3,65.2H22.9l-0.2-15.7l27.3,3.2L46.3,65.2z"/></svg>
