<svg xmlns="http://www.w3.org/2000/svg" data-name="Layer 1" viewBox="0 0 64 80" x="0px" y="0px"><path d="M15,36c1.084,0,2,.68652,2,1.5h2a3.61976,3.61976,0,0,0-3-3.37573V32H14v2.12427A3.61976,3.61976,0,0,0,11,37.5,3.77962,3.77962,0,0,0,15,41c1.084,0,2,.68652,2,1.5S16.084,44,15,44s-2-.68652-2-1.5H11a3.61976,3.61976,0,0,0,3,3.37573V48h2V45.87573A3.61976,3.61976,0,0,0,19,42.5,3.77962,3.77962,0,0,0,15,39c-1.084,0-2-.68652-2-1.5S13.916,36,15,36Z"/><rect x="27" y="36" width="11" height="2"/><rect x="30" y="46" width="11" height="2"/><rect x="24" y="41" width="11" height="2"/><path d="M20.50146,6.64258A9.74221,9.74221,0,0,0,15.06445,5a9.48666,9.48666,0,0,0-5.417,1.68066L10.793,8.31934a7.69753,7.69753,0,0,1,8.58545-.02246Z"/><path d="M22.69629,3.22266A13.836,13.836,0,0,0,15.11035,1h-.0542a13.96978,13.96978,0,0,0-7.602,2.24219L8.5459,4.918A11.98114,11.98114,0,0,1,15.064,3a12.17209,12.17209,0,0,1,6.53956,1.89844Z"/><path d="M18.32617,9.87793a6.49791,6.49791,0,0,0-6.51025.02441l1.02832,1.71485a4.47178,4.47178,0,0,1,4.46924-.01465Z"/><circle cx="15" cy="14" r="1"/><path d="M61.99921,33H42.938l-1.61377-4.34814A1.00045,1.00045,0,0,0,40.38672,28H36v2h3.69141l6.29052,16.94873A2.99671,2.99671,0,0,0,48.82812,49H59V47H48.82812a1.01151,1.01151,0,0,1-.96-.71582L47.39154,45H58.66589a1,1,0,0,0,.94867-.68378l3.33338-10A1,1,0,0,0,61.99921,33Z"/><circle cx="48.5" cy="52" r="1.5"/><circle cx="57.5" cy="52" r="1.5"/><path d="M26,57H3V23H26v5h2V22a5.00588,5.00588,0,0,0-5-5H5.77783A4.8985,4.8985,0,0,0,1,22V58a4.8985,4.8985,0,0,0,4.77783,5H23.22217A4.8985,4.8985,0,0,0,28,58V52H26Z"/></svg>
