<svg xmlns="http://www.w3.org/2000/svg" xmlns:xlink="http://www.w3.org/1999/xlink" version="1.1" x="0px" y="0px" viewBox="0 0 100 125" style="enable-background:new 0 0 100 100;" xml:space="preserve"><path d="M6.9,57.9h1.7c0.1,0,0.2,0,0.2,0c0.1,0,0.1,0,0.2,0h14.5c0.5,0,0.8,0.4,0.8,0.8v0.5c0,0.5-0.4,0.8-0.8,0.8H10  c-0.3,0-0.5,0.2-0.5,0.5v23c0,0.5,0.4,0.9,0.9,0.9h58c0.2,0,0.4-0.2,0.4-0.5l-1.2-13.8c0-0.1-0.1-0.2-0.2-0.3L63,66.2  c-0.1-0.1-0.1-0.2-0.2-0.3l-1-14.2c0-0.2-0.2-0.4-0.4-0.4H6.9c-0.9,0-1.6,0.7-1.6,1.6v3.3C5.3,57.1,6,57.9,6.9,57.9z"/><path d="M41.1,16.6c0-8.1-7.6-7.6-7.6-7.6S26,8.5,26,16.6c-0.2,3.6,2.3,10.7,7.6,11.3C38.8,27.2,41.3,20.2,41.1,16.6z"/><path d="M25.4,28.6l-7.6,3.6c-0.5,0.5-0.7,1.1-0.7,1.7l1.5,13.6c0.1,0.7,0.6,1.2,1.3,1.2h27.3c0.7,0,1.2-0.5,1.3-1.2L50,33.9  c0-0.6-0.3-1.3-0.7-1.7l-7.6-3.6c-0.2-0.1-0.4,0-0.4,0.2c-0.4,1.9-2.5,10.5-7.6,15.7c-0.1,0.1-0.3,0.1-0.4,0  c-5.1-5.3-7.2-13.9-7.6-15.7C25.7,28.6,25.5,28.5,25.4,28.6z"/><path d="M37.1,29.4l-3.3,1.3c-0.1,0-0.2,0-0.4,0l-3.3-1.3c-0.3-0.1-0.7,0.1-0.7,0.5v3.4c0,0.3,0.3,0.6,0.6,0.5l3.4-0.9  c0.1,0,0.2,0,0.3,0l3.4,0.9c0.3,0.1,0.6-0.2,0.6-0.5v-3.4C37.7,29.5,37.4,29.3,37.1,29.4z"/><path d="M67.4,34.3c-1.4,0.8-2.2,2.2-2.1,3.6L67,62.8c0,0.6,0.3,1.1,0.8,1.5l3.2,2.6c0.4,0.3,0.7,0.8,0.8,1.3l2.3,23.9  c0.2,1.1,1.2,1.9,2.4,1.9h2.2h0.2h4.7c1.2,0,2.2-0.8,2.4-1.9l2.3-23.9c0.1-0.5,0.4-1,0.8-1.3l3.2-2.6c0.5-0.4,0.8-0.9,0.8-1.5  l1.6-24.8c0.1-1.5-0.7-2.8-2.1-3.6L89,32.2c-0.7-0.4-1.6-0.6-2.4-0.6h-6.4h-0.2h-6.4c-0.9,0-1.7,0.2-2.4,0.6L67.4,34.3z"/><path d="M80,27.8c6.1-0.7,9-8.9,8.7-13c0-9.3-8.7-8.7-8.7-8.7s-8.7-0.6-8.7,8.7C71,19,73.9,27.1,80,27.8z"/><text x="0" y="115" fill="#000000" font-size="5px" font-weight="bold" font-family="'Helvetica Neue', Helvetica, Arial-Unicode, Arial, Sans-serif">Created by Nubaia Karim Barsha</text><text x="0" y="120" fill="#000000" font-size="5px" font-weight="bold" font-family="'Helvetica Neue', Helvetica, Arial-Unicode, Arial, Sans-serif">from the Noun Project</text></svg>